<svg xmlns="http://www.w3.org/2000/svg" width="11.236" height="10" viewBox="0 0 11.236 10">
  <g id="Grupo_30" data-name="Grupo 30" transform="translate(-315 -992)">
    <path id="account-group" d="M5.618,5.5A1.925,1.925,0,0,1,7.257,7.618,1.925,1.925,0,0,1,5.618,9.736,1.925,1.925,0,0,1,3.979,7.618,1.925,1.925,0,0,1,5.618,5.5M2.341,7.013a1.157,1.157,0,0,1,.716.254,4.079,4.079,0,0,0,.529,2.4,1.411,1.411,0,0,1-1.245.98,1.65,1.65,0,0,1-1.4-1.815,1.65,1.65,0,0,1,1.4-1.815m6.554,0a1.65,1.65,0,0,1,1.4,1.815,1.65,1.65,0,0,1-1.4,1.815,1.411,1.411,0,0,1-1.245-.98,4.079,4.079,0,0,0,.529-2.4A1.157,1.157,0,0,1,8.9,7.013m-6.32,6.2c0-1.253,1.362-2.269,3.043-2.269s3.043,1.017,3.043,2.269v1.059H2.575V13.216M0,14.275v-.908c0-.841.885-1.549,2.083-1.755a2.911,2.911,0,0,0-.445,1.6v1.059H0m11.236,0H9.6V13.216a2.911,2.911,0,0,0-.445-1.6c1.2.206,2.083.914,2.083,1.755Z" transform="translate(315 986.5)" fill="#323232"/>
    <g id="Unión_1" data-name="Unión 1" transform="translate(2547 998)" fill="#323232">
      <path d="M -2222.433349609375 3.899699926376343 L -2223.566650390625 3.899699926376343 L -2223.566650390625 2.666470050811768 L -2223.566650390625 2.566470146179199 L -2223.666748046875 2.566470146179199 L -2224.899658203125 2.566470146179199 L -2224.899658203125 1.433230042457581 L -2223.666748046875 1.433230042457581 L -2223.566650390625 1.433230042457581 L -2223.566650390625 1.333230018615723 L -2223.566650390625 0.1000000312924385 L -2222.433349609375 0.1000000312924385 L -2222.433349609375 1.333230018615723 L -2222.433349609375 1.433230042457581 L -2222.333251953125 1.433230042457581 L -2221.100341796875 1.433230042457581 L -2221.100341796875 2.566470146179199 L -2222.333251953125 2.566470146179199 L -2222.433349609375 2.566470146179199 L -2222.433349609375 2.666470050811768 L -2222.433349609375 3.899699926376343 Z" stroke="none"/>
      <path d="M -2222.533203125 3.799700021743774 L -2222.533203125 2.666470050811768 L -2222.533203125 2.466470003128052 L -2222.333251953125 2.466470003128052 L -2221.2001953125 2.466470003128052 L -2221.2001953125 1.533230066299438 L -2222.333251953125 1.533230066299438 L -2222.533203125 1.533230066299438 L -2222.533203125 1.333230018615723 L -2222.533203125 0.2000000327825546 L -2223.466796875 0.2000000327825546 L -2223.466796875 1.333230018615723 L -2223.466796875 1.533230066299438 L -2223.666748046875 1.533230066299438 L -2224.7998046875 1.533230066299438 L -2224.7998046875 2.466470003128052 L -2223.666748046875 2.466470003128052 L -2223.466796875 2.466470003128052 L -2223.466796875 2.666470050811768 L -2223.466796875 3.799700021743774 L -2222.533203125 3.799700021743774 M -2222.333251953125 3.99970006942749 L -2223.666748046875 3.99970006942749 L -2223.666748046875 2.666470050811768 L -2224.999755859375 2.666470050811768 L -2224.999755859375 1.333230018615723 L -2223.666748046875 1.333230018615723 L -2223.666748046875 3.471374654395731e-08 L -2222.333251953125 3.471374654395731e-08 L -2222.333251953125 1.333230018615723 L -2221.000244140625 1.333230018615723 L -2221.000244140625 2.666470050811768 L -2222.333251953125 2.666470050811768 L -2222.333251953125 3.99970006942749 Z" stroke="none" fill="#ffb703"/>
    </g>
  </g>
</svg>
