<svg xmlns="http://www.w3.org/2000/svg" width="3134.42" height="2232.678" viewBox="0 0 3134.42 2232.678"><defs><style>.a{fill:rgba(255,255,255,0.05);}.b{fill:rgba(255,255,255,0.09);}</style></defs><g transform="translate(590.243 556.083)"><path class="a" d="M669.352,48.111c6.6-17.029,30.7-17.029,37.3,0l658.8,1699.661A20,20,0,0,1,1346.8,1775H29.2a20,20,0,0,1-18.648-27.228Z" transform="matrix(0.719, -0.695, 0.695, 0.719, -590.243, 399.767)"/><path class="b" d="M204.318,473.866c101.637-198.05,384.728-198.05,486.365,0h0C784.028,655.76,651.948,872,447.5,872h0c-204.448,0-336.528-216.24-243.182-398.134Z" transform="translate(1933.789 -480.958) rotate(47)"/></g></svg>