<svg xmlns="http://www.w3.org/2000/svg" width="212" height="211.87" viewBox="0 0 212 211.87"><defs><style>.a{fill:#fafafa;}</style></defs><path class="a" d="M100.4,73.888l-.28,25.049,12.182,7.416.14-14.413,39.068,25.329-.14,11.615L111.88,153.654l.14-11.9L99.7,149.036l-.28,25.049,64.132-40.162.14-18.892Z"/><path class="a" d="M146.465,119.229l-.14,8.677-29.4,18.472.14-11.475,18.9-11.2v-.28L117.2,111.952l.14-11.475Z"/><path class="a" d="M111.6,137.7l.14-24.909L99.7,105.235l-.14,14.414L60.631,94.46V82.844l39.487-24.629-.14,11.895L112.3,62.833l.14-25.049L48.589,77.807l-.28,18.752Z"/><path class="a" d="M65.531,92.5l.14-8.676L95.077,65.492l-.14,11.475-18.9,11.2v.28L94.657,99.917l-.14,11.475Z"/><path class="a" d="M106,211.87c-58.391,0-106-47.58-106-105.935S47.609,0,106,0,212,47.58,212,105.935A106.072,106.072,0,0,1,106,211.87ZM106,9.8a96.139,96.139,0,1,0,96.2,96.139A96.334,96.334,0,0,0,106,9.8Z"/></svg>