<svg xmlns="http://www.w3.org/2000/svg" width="158.636" height="52.358" viewBox="0 0 158.636 52.358"><defs><style>.a{fill:#fafafa;}</style></defs><g transform="translate(242.636 -290.474)"><path class="a" d="M82.278,21.916v3.853c0,4.611-2.658,7.263-7.848,7.263s-7.848-2.653-7.848-7.263V10.737c0-4.611,2.658-7.263,7.848-7.263s7.848,2.653,7.848,7.263v2.779h-5V10.421c0-2.084-1.076-2.842-2.721-2.842s-2.722.758-2.722,2.842V25.958c0,2.084,1.076,2.779,2.722,2.779s2.721-.758,2.721-2.779V21.853h5Z" transform="translate(-309 287)"/><path class="a" d="M98.354,24.379h-3.1l-1.013,8.21h-4.3l1.013-8.21H88.607l.38-3.221h2.342l.886-7.516H89.873l.38-3.221h2.405l.823-6.632h4.3l-.823,6.632h3.1l.823-6.632h4.3l-.823,6.632h2.468l-.379,3.221h-2.469l-.886,7.516h2.468l-.379,3.221h-2.469l-1.012,8.21H97.4Zm-2.722-3.158h3.1l.886-7.516h-3.1Z" transform="translate(-309 287)"/><path class="a" d="M124.937,24.253l3.544-20.4h7.342v28.8h-5V12l-3.608,20.653h-5l-3.924-20.4v20.4h-4.62V3.853h7.342Z" transform="translate(-309 287)"/><path class="a" d="M149.24,16.61h6.773v4.105H149.24V32.589h-5.253V3.853h13.924V7.958H149.24Z" transform="translate(-309 287)"/><path class="a" d="M170,15.979h7.215v4.105H170v8.463h9.114v4.105H164.747V3.853h14.367V7.958H170Z" transform="translate(-309 287)"/><path class="a" d="M201.962,21.916v3.853c0,4.611-2.658,7.263-7.848,7.263s-7.848-2.653-7.848-7.263V10.737c0-4.611,2.658-7.263,7.848-7.263s7.848,2.653,7.848,7.263v2.779h-5V10.421c0-2.084-1.076-2.842-2.722-2.842s-2.721.758-2.721,2.842V25.958c0,2.084,1.076,2.779,2.721,2.779s2.722-.758,2.722-2.779V21.853h5Z" transform="translate(-309 287)"/><path class="a" d="M209.051,10.737c0-4.611,2.848-7.263,7.974-7.263,5.19,0,7.975,2.653,7.975,7.263V25.705c0,4.611-2.848,7.263-7.975,7.263-5.189,0-7.974-2.653-7.974-7.263ZM214.3,26.021c0,2.084,1.076,2.842,2.721,2.842s2.722-.758,2.722-2.842v-15.6c0-2.084-1.076-2.842-2.722-2.842s-2.721.758-2.721,2.842Z" transform="translate(-309 287)"/><path class="a" d="M66.582,38.021h1.839V196.657H66.582Z" transform="translate(-45.979 259.161) rotate(90)"/><path class="a" d="M71.519,52.169v1.263c0,1.516-.886,2.337-2.532,2.337s-2.532-.821-2.532-2.337v-4.8c0-1.516.886-2.337,2.532-2.337s2.532.821,2.532,2.337v.884H69.937V48.505a.886.886,0,0,0-1.772,0v4.989a.886.886,0,0,0,1.772,0V52.169Z" transform="translate(-309 287)"/><path class="a" d="M73.8,48.569c0-1.516.886-2.337,2.595-2.337,1.646,0,2.595.821,2.595,2.337v4.8c0,1.516-.886,2.337-2.595,2.337-1.646,0-2.595-.821-2.595-2.337Zm1.709,4.926a.886.886,0,0,0,1.772,0V48.505a.886.886,0,0,0-1.772,0Z" transform="translate(-309 287)"/><path class="a" d="M85,52.989l1.139-6.568h2.342v9.284H86.9V49.011l-1.2,6.632H84.178l-1.266-6.568v6.568H81.456V46.358H83.8Z" transform="translate(-309 287)"/><path class="a" d="M94.747,52.989l1.139-6.568h2.342v9.284H96.646V49.011l-1.2,6.632H93.861L92.6,49.074v6.568H91.14V46.358h2.342Z" transform="translate(-309 287)"/><path class="a" d="M102.532,46.358v7.137a.886.886,0,0,0,1.772,0V46.358h1.583v7.074c0,1.516-.887,2.337-2.532,2.337s-2.532-.821-2.532-2.337V46.358Z" transform="translate(-309 287)"/><path class="a" d="M109.937,48.947v6.695h-1.519V46.358h2.152l1.772,5.558V46.358h1.519v9.284h-1.835Z" transform="translate(-309 287)"/><path class="a" d="M116.393,46.358H118.1v9.284h-1.708Z" transform="translate(-309 287)"/><path class="a" d="M120.254,46.358h5.253v1.326h-1.772v7.958h-1.709V47.684h-1.772Z" transform="translate(-309 287)"/><path class="a" d="M129.177,52.547l-2.152-6.19H128.8l1.265,4.232,1.266-4.232h1.646l-2.152,6.19v3.095h-1.709V52.547Z" transform="translate(-309 287)"/><path class="a" d="M140.57,50.463h2.215V51.79H140.57v3.853h-1.709V46.358h4.494v1.326H140.57Z" transform="translate(-309 287)"/><path class="a" d="M147.279,50.274h2.342V51.6h-2.342v2.716h2.912v1.326H145.57V46.358h4.621v1.326h-2.912Z" transform="translate(-309 287)"/><path class="a" d="M154.937,46.295c1.646,0,2.532.821,2.532,2.337v.316h-1.583v-.379c0-.632-.316-.884-.822-.884s-.823.253-.823.884c0,1.895,3.291,2.274,3.291,4.926,0,1.516-.886,2.337-2.532,2.337s-2.531-.821-2.531-2.337v-.568h1.582v.695a.886.886,0,0,0,1.772,0c0-1.895-3.291-2.274-3.291-4.926C152.4,47.116,153.292,46.295,154.937,46.295Z" transform="translate(-309 287)"/><path class="a" d="M159.3,46.358h5.253v1.326h-1.772v7.958h-1.709V47.684H159.3Z" transform="translate(-309 287)"/><path class="a" d="M175.95,55.642h-1.709l-.316-1.705h-2.089l-.316,1.705h-1.582l1.708-9.284h2.469Zm-3.861-2.905h1.646l-.823-4.674Z" transform="translate(-309 287)"/><path class="a" d="M179.621,48.947v6.695H178.1V46.358h2.151l1.773,5.558V46.358h1.519v9.284h-1.773Z" transform="translate(-309 287)"/><path class="a" d="M186.076,46.358h2.658c1.709,0,2.532.821,2.532,2.274v4.674c0,1.516-.823,2.274-2.532,2.274h-2.658Zm1.709,1.326v6.632h.949a.774.774,0,0,0,.886-.884v-4.8a.774.774,0,0,0-.886-.884h-.949Z" transform="translate(-309 287)"/><path class="a" d="M202.469,52.169v1.263c0,1.516-.887,2.337-2.532,2.337s-2.532-.821-2.532-2.337v-4.8c0-1.516.886-2.337,2.532-2.337s2.532.821,2.532,2.337v.884h-1.583V48.505a.886.886,0,0,0-1.772,0v4.989a.886.886,0,0,0,1.772,0V52.169Z" transform="translate(-309 287)"/><path class="a" d="M204.747,48.569c0-1.516.886-2.337,2.6-2.337s2.6.821,2.6,2.337v4.8c0,1.516-.886,2.337-2.6,2.337s-2.6-.821-2.6-2.337Zm1.709,4.926a.886.886,0,0,0,1.772,0V48.505a.886.886,0,0,0-1.772,0Z" transform="translate(-309 287)"/><path class="a" d="M212.4,46.358h2.658c1.709,0,2.532.821,2.532,2.274v4.674c0,1.516-.823,2.274-2.532,2.274H212.4Zm1.709,1.326v6.632h.949a.774.774,0,0,0,.887-.884v-4.8a.774.774,0,0,0-.887-.884h-.949Z" transform="translate(-309 287)"/><path class="a" d="M221.772,50.274h2.342V51.6h-2.342v2.716h2.912v1.326h-4.621V46.358h4.621v1.326h-2.912Z" transform="translate(-309 287)"/></g></svg>